<?xml version="1.0" encoding="UTF-8" ?>
<!DOCTYPE svg PUBLIC "-//W3C//DTD SVG 1.1//EN" "http://www.w3.org/Graphics/SVG/1.1/DTD/svg11.dtd">
<svg width="45pt" height="44pt" viewBox="0 0 45 44" version="1.1" xmlns="http://www.w3.org/2000/svg">
<g id="#009fdbea">
<path fill="#ffffff" opacity="0.92" d=" M 20.36 0.00 L 24.68 0.00 C 31.21 0.79 37.41 4.42 40.91 10.05 C 45.38 16.92 45.54 26.32 41.29 33.33 C 37.86 39.29 31.46 43.19 24.69 44.00 L 20.35 44.00 C 16.68 43.43 13.03 42.26 10.01 40.05 C 1.89 34.53 -1.45 23.27 2.13 14.16 C 4.90 6.47 12.28 0.92 20.36 0.00 M 9.09 7.09 C 9.98 7.99 10.86 8.89 11.74 9.80 C 10.35 12.20 8.88 9.25 7.66 8.53 C 4.72 12.05 2.91 16.40 2.58 20.99 C 3.48 20.99 5.28 21.00 6.18 21.00 C 6.18 21.50 6.18 22.50 6.18 23.00 C 5.27 23.00 3.47 23.01 2.56 23.01 C 2.97 28.97 5.92 34.74 10.80 38.24 C 17.50 43.37 27.54 43.37 34.26 38.27 C 39.18 34.78 42.08 28.97 42.54 23.02 C 41.63 23.01 39.80 23.00 38.88 23.00 C 38.88 22.51 38.88 21.52 38.88 21.03 C 40.11 21.00 41.33 20.95 42.56 20.88 C 42.06 16.34 40.38 11.97 37.39 8.49 C 36.69 9.14 35.29 10.45 34.59 11.11 C 32.59 9.51 34.91 8.32 35.97 7.06 C 32.46 4.14 28.13 1.99 23.47 1.97 C 23.48 2.87 23.49 4.66 23.50 5.56 L 21.64 5.59 C 21.64 4.67 21.62 2.84 21.62 1.92 C 16.96 2.07 12.59 4.09 9.09 7.09 Z" />
<path fill="#ffffff" opacity="0.92" d=" M 19.06 20.18 C 22.73 16.53 26.48 12.95 30.27 9.42 C 29.10 14.48 27.94 19.54 26.66 24.56 C 25.90 27.88 20.94 28.52 19.03 25.88 C 17.67 24.32 17.43 21.64 19.06 20.18 M 26.94 15.18 C 24.68 17.48 22.18 19.55 20.03 21.96 C 18.93 24.88 22.67 26.69 24.71 24.79 C 25.39 21.57 26.25 18.39 26.94 15.18 Z" />
</g>
</svg>
