<?xml version="1.0" encoding="UTF-8" ?>
<!DOCTYPE svg PUBLIC "-//W3C//DTD SVG 1.1//EN" "http://www.w3.org/Graphics/SVG/1.1/DTD/svg11.dtd">
<svg width="32pt" height="32pt" viewBox="0 0 32 32" version="1.1" xmlns="http://www.w3.org/2000/svg">
<g id="#e3e9eaff">
<path fill="#e3e9ea" opacity="1.00" d=" M 15.34 0.00 L 16.47 0.00 C 18.76 0.31 21.28 1.64 21.60 4.17 C 21.76 7.15 22.66 10.45 21.06 13.19 C 19.99 15.10 19.35 17.19 19.42 19.40 C 22.23 20.73 25.21 21.62 28.06 22.84 C 30.66 24.06 31.53 27.05 32.00 29.64 L 32.00 32.00 L 0.00 32.00 L 0.00 29.84 C 0.40 27.17 1.29 24.10 3.94 22.84 C 6.81 21.66 9.82 20.80 12.63 19.43 C 13.01 15.18 9.04 11.96 10.13 7.66 C 9.67 4.13 11.62 0.57 15.34 0.00 Z" />
</g>
</svg>
