<svg width="32pt" height="38pt" viewBox="0 0 32 38" version="1.1" xmlns="http://www.w3.org/2000/svg">
<g id="#e3e9eaff">
<path fill="#e3e9ea" opacity="1.00" d=" M 15.27 0.00 L 15.48 0.00 C 16.18 1.85 16.79 3.74 17.33 5.65 C 19.47 2.62 23.06 1.59 26.63 1.78 C 25.60 3.79 24.20 5.57 22.38 6.92 C 27.66 7.21 31.23 11.89 32.00 16.80 L 32.00 19.45 C 31.24 25.64 27.16 30.65 23.02 35.01 C 21.56 36.51 19.62 37.39 17.65 38.00 L 14.50 38.00 C 12.46 37.45 10.47 36.54 8.98 35.00 C 4.86 30.68 0.84 25.71 0.00 19.59 L 0.00 16.97 C 0.65 11.93 4.36 7.17 9.73 6.94 C 7.99 5.52 6.56 3.78 5.51 1.79 C 8.99 1.55 12.29 2.69 14.80 5.11 C 14.42 4.16 13.65 2.27 13.27 1.32 C 13.77 0.99 14.77 0.33 15.27 0.00 M 9.62 11.62 C 8.65 12.87 9.98 14.03 10.48 15.15 C 11.11 14.12 11.92 10.55 9.62 11.62 M 21.57 14.85 C 22.27 13.25 23.00 11.41 20.95 10.44 C 20.26 11.99 20.77 13.47 21.57 14.85 M 15.69 12.81 C 14.44 12.94 14.87 16.56 16.59 15.66 C 16.87 14.58 17.57 12.31 15.69 12.81 M 3.34 15.61 C 3.84 16.56 4.36 17.51 4.91 18.44 C 5.38 17.10 5.65 15.70 5.15 14.32 C 4.70 14.64 3.79 15.29 3.34 15.61 M 27.18 18.47 C 27.93 17.24 29.28 15.66 27.64 14.49 C 25.73 15.14 26.85 17.12 27.18 18.47 M 8.24 17.23 C 7.26 18.41 8.40 19.78 8.65 21.01 C 9.47 19.83 10.73 17.04 8.24 17.23 M 22.71 21.31 C 23.04 20.05 24.32 18.38 22.86 17.35 C 20.60 17.72 22.13 20.13 22.71 21.31 M 15.48 22.95 C 15.94 21.59 16.32 20.18 16.11 18.72 C 13.57 19.25 14.45 21.50 15.48 22.95 M 5.47 26.15 C 5.71 24.90 6.73 23.50 5.77 22.30 C 3.29 22.35 4.61 24.96 5.47 26.15 M 19.23 22.48 C 17.62 23.53 19.17 25.20 19.72 26.38 C 20.00 25.21 21.37 22.69 19.23 22.48 M 27.15 25.66 C 28.82 25.44 28.87 22.18 27.03 22.21 C 25.19 22.43 25.40 25.48 27.15 25.66 M 11.18 26.21 C 13.16 26.53 13.44 22.18 11.24 22.63 C 9.86 23.25 10.06 25.44 11.18 26.21 M 8.38 27.35 C 7.23 28.42 8.31 29.93 8.41 31.18 C 9.36 30.06 10.76 27.61 8.38 27.35 M 14.51 26.98 C 13.80 28.00 14.21 30.38 15.75 30.21 C 17.52 29.38 16.46 25.31 14.51 26.98 M 22.46 31.86 C 22.85 30.52 23.17 29.15 23.19 27.74 C 20.33 28.00 21.42 30.34 22.46 31.86 M 11.79 31.49 C 12.01 32.43 12.45 34.33 12.67 35.28 C 14.05 33.86 14.48 31.30 11.79 31.49 M 17.27 31.40 C 16.51 32.67 17.81 33.87 18.31 34.96 C 18.70 33.66 19.88 30.31 17.27 31.40 Z" />
</g>
</svg>
