<?xml version="1.0" standalone="no"?>
<!DOCTYPE svg PUBLIC "-//W3C//DTD SVG 1.1//EN" "http://www.w3.org/Graphics/SVG/1.1/DTD/svg11.dtd" >
<svg>
<metadata>
Created by FontForge 20110222 at Wed Dec 12 09:49:38 2012
 By www-data
Skyhaven
</metadata>
<defs>
<font id="Songbird-Regular" horiz-adv-x="1000" >
  <font-face 
    font-family="Songbird"
    font-weight="400"
    font-stretch="normal"
    units-per-em="1000"
    panose-1="0 0 0 0 0 0 0 0 0 0"
    ascent="925"
    descent="-75"
    x-height="605"
    cap-height="626"
    bbox="5 -145 474 750"
    underline-thickness="50"
    underline-position="-50"
    stemh="42"
    stemv="53"
    unicode-range="U+0020-20AC"
  />
    <missing-glyph />
    <glyph glyph-name="space" unicode=" " horiz-adv-x="251" 
 />
    <glyph glyph-name="exclam" unicode="!" horiz-adv-x="100" 
d="M85 30c0 -17 -22 -32 -31 -32h-8c-11 0 -20 25 -20 28c0 16 18 34 37 34c17 0 22 -25 22 -30zM81 160c0 -12 -17 -19 -24 -19c-4 0 -9 -3 -12 -3c-5 0 -16 7 -21 11l2 196c2 11 0 27 0 41c0 34 2 81 1 115c-3 76 -8 77 -8 87c0 3 18 20 27 20c4 0 29 -9 27 -17
c0 -52 1 -114 1 -156l4 -230c5 -32 3 -29 3 -45z" />
    <glyph glyph-name="quotedbl" unicode="&#x22;" horiz-adv-x="164" 
d="M67 640c0 -9 -7 -24 -3 -31c-7 -7 -19 -13 -27 -18c0 1 2 3 -2 3c-19 0 -16 29 -16 32c0 4 1 68 6 102c0 4 16 10 20 10c21 0 22 -93 22 -98zM137 699c0 -4 0 -13 -1 -68c-1 -8 1 -41 -19 -41c-15 0 -10 9 -29 23c-1 17 4 59 1 88c-1 5 -6 16 -6 20c0 5 12 11 14 11
c4 0 0 -3 4 -3c5 0 0 1 5 1c20 0 31 -13 31 -31z" />
    <glyph glyph-name="numbersign" unicode="#" 
 />
    <glyph glyph-name="dollar" unicode="$" horiz-adv-x="184" 
d="M169 129c5 -32 -7 -98 -45 -133c-16 -15 -6 -45 -10 -69c-1 0 -9 0 -13 -4c-10 7 -27 6 -31 16c1 14 5 28 1 42c-24 -2 -53 58 -53 87c0 13 15 21 24 21c37 0 19 -60 49 -60s38 52 38 72c0 115 -128 275 -115 324c2 45 0 47 0 49c4 38 22 97 43 115c1 16 9 42 1 57
c2 10 10 21 24 21c37 0 15 -41 21 -64c9 -8 32 -10 36 -23c7 -24 12 -71 12 -97c0 -14 -3 -32 -22 -32h-9c-25 0 5 58 -24 110c-18 -9 -24 -57 -28 -86c2 -75 0 -77 0 -78c29 -89 92 -178 101 -268z" />
    <glyph glyph-name="percent" unicode="%" 
 />
    <glyph glyph-name="ampersand" unicode="&#x26;" 
 />
    <glyph glyph-name="parenleft" unicode="(" 
 />
    <glyph glyph-name="parenright" unicode=")" 
 />
    <glyph glyph-name="asterisk" unicode="*" horiz-adv-x="195" 
d="M459 -137l4 -7l-3 -1l-4 8h3zM184 582c0 -7 -14 -20 -19 -20c-21 0 -37 27 -54 47c-3 -8 -3 -18 -8 -27c2 -13 5 -27 -10 -27c-24 0 -8 8 -18 23c-16 -23 -25 -25 -42 -29c-1 4 -9 9 -9 13c0 20 25 53 25 61c0 4 -8 7 -13 10c-7 2 -16 11 -15 18c11 7 22 12 34 23
c-15 28 -37 45 -35 64c4 3 9 6 14 7c15 -5 40 -41 45 -48c12 34 -10 52 18 52c19 0 9 -19 14 -36c17 23 20 37 44 37c6 0 14 -18 14 -18c0 -15 -22 -35 -30 -56c1 -2 3 -5 7 -5c5 0 13 6 17 6c10 0 21 -12 21 -16c0 -8 -10 -27 -18 -27c-5 0 -19 2 -28 3c-2 -1 -1 -2 -3 -4
c8 -8 23 -27 35 -35c3 -1 14 -12 14 -16z" />
    <glyph glyph-name="plus" unicode="+" 
 />
    <glyph glyph-name="comma" unicode="," horiz-adv-x="85" 
d="M67 -30c0 -9 -7 -24 -3 -31c-7 -7 -19 -13 -27 -18c0 1 2 3 -2 3c-19 0 -16 29 -16 32c0 4 1 68 6 102c0 4 16 10 20 10c21 0 22 -93 22 -98z" />
    <glyph glyph-name="hyphen" unicode="-" 
 />
    <glyph glyph-name="period" unicode="." horiz-adv-x="100" 
d="M85 30c0 -17 -22 -32 -31 -32h-8c-11 0 -20 25 -20 28c0 16 18 34 37 34c17 0 22 -25 22 -30z" />
    <glyph glyph-name="slash" unicode="/" 
 />
    <glyph glyph-name="zero" unicode="0" horiz-adv-x="256" 
d="M202 274v148c0 11 -13 174 -64 174c-75 0 -74 -115 -74 -140v-114c0 -10 -4 -29 -4 -33c0 -14 1 -274 63 -274c4 0 3 4 7 4c5 0 13 -2 17 -2c23 0 35 22 40 37c11 41 15 192 15 200zM251 298l-5 -156c0 -66 -23 -130 -105 -150l-4 3c-2 -1 2 -3 -2 -3s-8 -2 -12 -2h-8
c-90 0 -91 266 -91 296l-8 137c0 62 2 135 44 173c21 19 74 41 95 41c22 0 63 -37 64 -42c27 -81 32 -212 32 -297z" />
    <glyph glyph-name="one" unicode="1" horiz-adv-x="132" 
d="M100 427l-4 -337c0 -18 6 -45 -2 -88c-2 -9 -11 -12 -22 -12s-19 -2 -23 21l6 189l-2 296c-7 -7 -14 -17 -17 -24c-3 2 -6 0 -11 0c-17 0 -20 25 -20 33c0 1 36 59 61 93c2 3 7 3 11 3c28 0 14 -11 22 -27c-4 -43 -3 -93 1 -147z" />
    <glyph glyph-name="two" unicode="2" horiz-adv-x="157" 
d="M145 532c0 -101 -97 -449 -97 -485c0 -4 2 -5 2 -10c10 0 30 -2 35 -2c4 0 17 2 26 4c4 -5 8 -12 8 -19c0 -14 -9 -17 -20 -17c-4 0 -14 2 -19 2c-16 0 -40 -8 -52 -8c-4 0 -3 4 -8 4c-14 0 -12 15 -12 18c0 18 97 398 97 519c0 17 -6 31 -11 37c-29 -13 -31 -68 -56 -73
c-5 7 -12 4 -17 11c13 27 2 102 54 102c4 0 11 -2 16 -2c4 0 5 1 5 3c50 -23 49 -60 49 -84z" />
    <glyph glyph-name="three" unicode="3" horiz-adv-x="178" 
d="M158 169c0 -4 -7 -2 -2 -47c5 -37 -38 -123 -92 -123c-9 0 -51 6 -51 25v13c2 2 3 2 8 2c4 0 22 -7 25 -7c5 0 1 2 6 2c4 0 -1 -4 3 -4c47 0 65 80 65 98c0 67 -46 176 -100 210c8 17 27 38 36 59c18 42 40 115 40 159c0 10 -1 36 -15 36c-16 0 -26 -44 -41 -44
c-4 0 -13 7 -20 11c-2 19 20 75 57 75c58 0 63 -88 63 -111c0 -92 -64 -164 -64 -173c0 -5 41 -43 45 -50c25 -48 37 -82 37 -131z" />
    <glyph glyph-name="four" unicode="4" horiz-adv-x="232" 
d="M221 216c0 -3 -11 -17 -17 -20c-1 1 -2 -4 -6 -4s-4 2 -5 3l-5 -2v-175c0 -9 -19 -12 -19 -12h-11c-29 0 -16 135 -20 186c-20 2 -65 0 -69 0s-9 -4 -13 -4c-9 0 -25 2 -37 4c12 42 35 137 35 220c0 81 -16 137 -42 206c1 4 18 7 22 7c47 0 63 -177 61 -189
c0 -1 -1 -3 -1 -52c0 -51 -14 -102 -22 -153c2 -2 -1 -3 3 -3c56 0 68 -5 68 58v78l-6 85c-5 97 -3 80 -8 120c-1 12 -10 32 -10 37c0 18 35 15 43 15c10 0 28 -13 13 -29l8 -326c1 -16 -4 -19 3 -27c4 0 9 2 12 6c3 -2 23 -23 23 -29z" />
    <glyph glyph-name="five" unicode="5" horiz-adv-x="205" 
d="M196 204c0 -123 -23 -151 -32 -161c-2 -1 -40 -29 -55 -29c-4 0 -18 -4 -23 -4c-4 0 2 4 -2 4h-22c-5 0 -4 3 -8 3c-43 0 -40 123 -40 132c0 4 2 12 2 17c11 4 30 8 34 8c26 0 3 -91 37 -131c2 2 1 0 6 0c43 0 46 151 46 157c0 20 -1 85 -25 103l-5 5
c-6 -2 -14 -3 -18 -3c-5 0 -3 -2 -7 -2c-5 0 -5 -2 -9 0c-2 -2 -1 -3 0 -5c-4 0 -12 -2 -19 -2l-6 5c-2 1 -11 9 -11 14c0 3 9 21 10 32c5 55 10 160 10 164v74c0 4 0 21 1 30c3 2 97 15 115 15c11 0 19 -13 19 -20c0 -26 -11 -25 -17 -31c-10 4 -38 13 -53 13
c-27 0 -18 -88 -18 -94l-10 -142c0 -6 51 -13 62 -29c18 -27 38 -79 38 -123z" />
    <glyph glyph-name="six" unicode="6" horiz-adv-x="195" 
d="M135 115c0 57 -14 147 -15 166c0 9 -15 24 -18 30l-4 -4c-16 -1 -26 -28 -26 -32l13 -190c0 -2 0 -54 17 -54c4 0 5 -2 5 -4l4 4c11 2 24 29 24 84zM177 136c0 -10 -6 -147 -59 -147c-4 0 -12 -2 -16 -2c-92 0 -78 152 -84 187c-2 9 1 31 2 47c1 7 -5 36 -5 39
c0 26 7 212 10 259c1 13 6 114 64 114s85 -22 85 -82c0 -10 2 -55 -25 -54c-1 -1 -3 3 -5 1c-27 18 -4 89 -29 89c-13 0 -15 -26 -15 -26c-21 -64 -26 -134 -28 -207c0 -7 2 -8 3 -12c2 2 1 3 7 2l3 3c5 0 10 4 14 4c5 0 -2 -4 3 -4s12 2 24 4c63 -35 42 -114 49 -163
c2 -14 2 -47 2 -52z" />
    <glyph glyph-name="seven" unicode="7" horiz-adv-x="195" 
d="M178 606c0 0 -78 -292 -78 -408v-101l7 -82c0 -8 -4 -11 -14 -19c-1 4 -3 4 -7 4c-5 0 -7 0 -9 -2c-12 11 -22 8 -22 25v91l18 227c0 2 11 86 17 122c2 14 17 85 17 91c0 10 -45 6 -57 6l-4 -4l-4 4c-3 0 -7 0 -10 2c-4 4 -14 11 -14 15c0 11 0 11 3 32c1 1 1 4 3 5
c49 7 80 4 126 12c9 -4 28 -10 28 -20z" />
    <glyph glyph-name="eight" unicode="8" horiz-adv-x="183" 
d="M123 154v51c-6 37 2 91 -27 117c-25 -32 -37 -145 -37 -203c0 0 2 -77 21 -77c30 0 43 106 43 112zM119 494c0 31 -4 85 -32 102c-18 -14 -24 -62 -26 -84c0 -2 2 -4 0 -57c2 -9 6 -70 23 -70c4 0 0 -3 4 -3c26 0 31 101 31 112zM166 155c0 -3 1 -33 -2 -49
c-5 -25 -7 -39 -16 -64c-4 -10 -46 -44 -55 -44h-27c-31 0 -51 68 -53 74c-2 12 -1 34 -1 39c0 58 16 184 26 214c3 8 14 30 14 35c0 1 -33 107 -33 136v45c0 30 12 99 73 99c53 0 68 -112 67 -119c0 -2 1 -51 0 -55c-8 -42 -31 -108 -31 -110c0 -4 2 -8 5 -13
c18 -28 18 -38 22 -58c1 -6 -1 -18 2 -26c1 -3 4 -10 4 -14c1 -11 3 -24 4 -37c1 -38 1 -48 1 -53z" />
    <glyph glyph-name="nine" unicode="9" horiz-adv-x="219" 
d="M155 454c0 5 -3 25 -3 35c1 17 -5 90 -24 90c-4 0 -7 -5 -8 -4c-31 -17 -60 -139 -60 -178c0 -37 14 -135 48 -141c28 -5 47 140 47 198zM204 21c0 -7 -11 -22 -19 -22c-5 0 -1 -2 -6 -2c-4 0 -14 -2 -18 -2s-5 4 -9 4c-6 0 -10 22 -10 25v85c0 47 7 12 -3 116
c-9 -6 -26 -15 -31 -15h-25c-28 0 -59 54 -62 68c-2 16 -12 92 -12 98c0 28 9 240 116 240c70 0 77 -111 77 -156l-7 -196v-75c0 -5 0 -5 -2 -45c4 -38 11 -113 11 -123z" />
    <glyph glyph-name="colon" unicode=":" 
 />
    <glyph glyph-name="semicolon" unicode=";" 
 />
    <glyph glyph-name="less" unicode="&#x3c;" 
 />
    <glyph glyph-name="equal" unicode="=" 
 />
    <glyph glyph-name="greater" unicode="&#x3e;" 
 />
    <glyph glyph-name="question" unicode="?" horiz-adv-x="197" 
d="M103 32c0 -18 -6 -36 -23 -36c-12 0 -31 12 -31 24c0 17 18 35 37 35c14 0 17 -22 17 -23zM186 491c0 -61 -19 -93 -69 -156c-9 1 -5 -1 -15 -12c3 -107 -4 -119 3 -173c-1 -4 -10 -11 -15 -14l-4 3c-2 -1 -1 -1 -5 -1c-52 0 -27 50 -32 88c-5 39 -1 65 -1 70
c0 15 8 53 12 59c64 23 76 83 76 134c0 21 -12 83 -27 94h-6c-47 -50 -26 -123 -36 -158c-5 0 -12 -4 -16 -4s-15 -2 -20 -3l-4 3c-15 1 -10 21 -15 37c0 2 1 4 0 54c8 73 26 123 82 123c4 0 7 0 12 -2l3 4c16 -6 32 -13 46 -19c5 -10 14 -23 19 -34c3 -10 12 -71 12 -93z
" />
    <glyph glyph-name="at" unicode="@" 
 />
    <glyph glyph-name="A" unicode="A" horiz-adv-x="346" 
d="M215 261l-55 195l-33 -202c67 8 62 8 88 7zM337 16c0 -15 -21 -21 -30 -21c-3 0 -1 4 -12 -1c-14 -1 -16 20 -16 26l-49 179c-3 0 -3 2 -5 4c-37 0 -50 -1 -54 -2c-18 -1 -36 -3 -54 -4c-19 -75 -22 -194 -42 -194c-5 0 -11 3 -17 3c-4 0 -23 -7 -27 -7
c-2 0 -19 14 -19 15c0 6 66 354 72 403c6 51 15 122 32 198c15 0 47 6 50 6c4 0 15 0 16 -6c32 -125 63 -259 96 -386c14 -50 59 -206 59 -213z" />
    <glyph glyph-name="B" unicode="B" horiz-adv-x="219" 
d="M146 155c0 16 -20 110 -58 110c-4 0 -4 5 -5 3c-3 0 -3 4 -5 4c1 -13 0 -26 -2 -34l-3 -191c2 0 3 -2 8 -2c40 0 65 97 65 110zM151 509c0 43 -8 71 -57 79l-5 -2c-7 -3 -6 -28 -5 -42c2 -33 2 -78 2 -82v-92c39 38 65 95 65 139zM204 503c0 -71 -38 -139 -100 -182
c63 -12 89 -102 89 -155c0 -7 -7 -72 -10 -84c-8 -31 -65 -85 -89 -85c-4 0 -38 -11 -44 -11c-5 0 -5 10 -16 2c-15 5 -18 13 -18 27c0 4 6 34 6 50c5 318 6 404 5 535c-2 1 -3 5 -3 9c0 14 50 21 61 21c83 0 119 -45 119 -127z" />
    <glyph glyph-name="C" unicode="C" horiz-adv-x="186" 
d="M186 119c0 -40 -11 -124 -86 -124c-4 0 -18 6 -29 9c-52 25 -38 79 -48 118l2 373c2 23 26 144 90 144s66 -78 66 -124c0 -6 1 -13 -12 -17c-2 1 -5 -1 -5 -2l-4 3c-36 -14 0 97 -35 97c-5 0 0 -4 -5 -4s-1 4 -3 4c-48 -48 -40 -133 -42 -194c-11 -51 -9 -111 -9 -132
c0 -6 0 -229 21 -229c4 0 8 -4 13 -4c72 0 9 133 67 133c20 0 19 -47 19 -51z" />
    <glyph glyph-name="D" unicode="D" horiz-adv-x="236" 
d="M170 312v71c0 15 -38 163 -77 163c-4 0 -9 7 -10 7v-232c0 -4 -2 -162 -5 -217c1 -1 5 -4 5 -4c4 2 8 2 10 0c37 32 77 155 77 212zM219 388l-2 -89c-9 -64 -17 -127 -55 -200c-2 -4 -39 -52 -48 -52c-5 0 -44 -36 -48 -36c-5 0 -9 -4 -13 -4s-19 -3 -24 -3
c-6 0 -10 48 -10 49l4 166c2 79 7 119 7 137v219c0 4 -7 29 -7 33c0 12 19 12 27 12c140 0 169 -147 169 -232z" />
    <glyph glyph-name="E" unicode="E" horiz-adv-x="172" 
d="M166 583c0 -3 -9 -16 -13 -16c-15 0 -14 4 -51 4c-8 0 -26 2 -26 -3c-2 -135 -1 -79 -2 -181c1 -2 1 -3 6 -3s1 1 5 1c21 0 17 -46 20 -61c-4 -4 -12 -9 -16 -9s-8 2 -14 2c-3 -46 -9 -75 -9 -134v-111c2 -2 3 -5 8 -5c4 0 21 4 25 4c17 0 22 -19 22 -25
c0 -4 -4 -24 -4 -36c-6 -5 -22 -3 -26 -10c-2 2 -4 5 -8 5c-5 0 -13 -1 -18 -5c0 4 2 4 1 5c-3 -2 -13 -7 -17 -7h-10c-24 0 -22 16 -25 35l11 452v101c0 37 10 18 54 29l7 -2c13 3 34 5 56 11c3 -4 15 -5 18 -10c5 -8 6 -27 6 -31z" />
    <glyph glyph-name="F" unicode="F" horiz-adv-x="166" 
d="M155 587c0 -7 -9 -9 -12 -11l-5 -5c-23 -2 -49 -9 -53 -9c-5 0 -3 2 -4 4c-2 0 -3 -3 -7 -5l2 -164c3 -10 -4 -35 8 -35c4 0 9 3 13 3c5 0 2 4 7 4c4 0 3 -4 6 -3c14 -7 21 -61 21 -67c0 -4 -8 -13 -10 -19c-9 4 -23 9 -28 9h-11c-4 -27 -7 -80 -7 -84v-50
c0 -10 -7 -125 -10 -143c-8 -7 -26 -14 -34 -14c-18 0 -17 29 -18 36l7 323c4 42 5 123 5 128v70c0 4 1 43 -1 63c4 5 10 9 18 7l5 4c1 -2 4 -2 9 -2c3 0 5 2 9 2c5 0 65 6 70 6c16 0 20 -44 20 -48z" />
    <glyph glyph-name="G" unicode="G" horiz-adv-x="268" 
d="M250 11c0 -9 -5 -26 -18 -27c-4 -2 -11 -2 -15 -2c-6 0 -7 48 -11 64c-4 -7 -39 -64 -62 -64h-21c-5 0 -1 -3 -6 -3c-100 0 -90 171 -90 233v91l3 117c0 45 27 204 102 204c68 0 114 -26 114 -102c0 -7 1 -10 -8 -10c-4 0 -14 -16 -30 -16c-10 0 -16 68 -38 90
c-2 0 -4 -2 -5 -3c-47 7 -76 -127 -76 -186v-43l-9 -142c0 -14 2 -199 47 -199c5 0 4 -3 8 -3c38 0 43 90 43 96l-3 175l-3 3c-12 -7 -26 -14 -40 -22c-4 0 -2 -2 -7 -2c-7 0 -13 18 -13 18c0 10 5 57 14 57c5 0 1 -4 6 -4s56 15 66 22l3 -3c1 3 6 7 10 7
c24 0 20 -47 20 -54l11 -228c0 -4 8 -60 8 -64z" />
    <glyph glyph-name="H" unicode="H" horiz-adv-x="268" 
d="M239 611c0 -12 -6 -61 -8 -89c-2 -38 -8 -121 -8 -125v-43l-10 -204c0 -87 10 -120 10 -133c0 -8 -11 -15 -15 -15h-18c-11 0 -20 1 -20 15c0 6 4 24 4 30c0 13 3 38 3 42v71c0 4 4 29 5 44c-1 2 1 67 -1 69c-13 -2 -25 -2 -38 -2l-4 4c-88 -11 -81 8 -81 -58v-88
c0 -4 -2 -72 -1 -104c0 -14 -10 -23 -21 -23c-25 0 -22 64 -22 67l4 119c1 97 10 44 0 292c-5 138 -7 114 -7 127c0 4 4 11 5 15c10 0 26 2 30 2c27 0 16 -207 18 -313c2 -3 5 -3 10 -3c4 0 21 3 25 3s19 2 24 2s36 -4 40 -4c0 0 15 0 21 5l4 139l-2 155c0 12 26 21 39 21
c6 0 14 -14 14 -18z" />
    <glyph glyph-name="I" unicode="I" horiz-adv-x="103" 
d="M79 594c0 -5 -3 -52 -3 -57v-64l-6 -207l-9 -131l2 -91c0 -10 1 -33 -10 -38l-4 2c-1 -2 -3 -2 -8 -2c-26 0 -24 56 -24 63l11 230v196c0 49 8 98 -2 121c5 4 23 10 31 10c17 0 22 -20 22 -32z" />
    <glyph glyph-name="J" unicode="J" horiz-adv-x="236" 
d="M217 242l4 -142c-1 -36 -40 -99 -85 -99c-4 0 -25 4 -29 4s-16 3 -25 6c-45 15 -55 74 -59 116c-4 33 -2 65 -2 77c4 3 15 6 21 10c8 -7 27 -2 33 -14c6 -39 16 -136 39 -155c3 -2 4 -10 8 -10h5c25 0 39 85 39 94v165c0 1 -9 202 -9 309c0 11 1 25 20 25
c3 0 16 -6 23 -10c8 -21 14 -104 14 -118v-55s3 -87 3 -101v-102z" />
    <glyph glyph-name="K" unicode="K" horiz-adv-x="254" 
d="M246 605l-130 -240c-3 -5 -20 -28 -20 -43c0 -16 50 -128 52 -133c19 -54 78 -168 78 -173c0 -13 -32 -26 -40 -26c-11 0 -20 14 -19 21l-86 228c1 -24 -10 -80 1 -95v-121c-5 -4 -7 -14 -13 -18c-6 -3 -19 -1 -24 -9c-6 1 -18 5 -19 10c-6 19 -8 69 -8 93
c0 28 6 94 6 149v67l3 127c-10 121 5 92 -14 169c14 2 20 5 35 8l4 4l5 -3l8 1c20 -9 14 -102 17 -155c1 -17 -1 -43 1 -63l110 223c25 -2 39 -8 50 -9c0 -4 1 -8 3 -12z" />
    <glyph glyph-name="L" unicode="L" horiz-adv-x="198" 
d="M186 27c0 -22 -17 -28 -37 -28c-4 0 -52 -2 -56 -2s-26 -3 -30 -3s-28 -2 -31 -2c-12 0 -17 31 -17 32c0 4 6 22 6 113v54c0 170 18 271 7 413c-1 10 16 13 23 13c27 0 34 -26 34 -49c0 -4 -2 -36 -2 -40v-61l-13 -415c0 -6 0 -12 6 -17c2 2 0 4 5 4h13h15c5 0 -1 4 4 4
c4 0 45 2 50 2c4 0 3 1 8 1c4 0 0 2 4 2c10 0 11 -18 11 -21z" />
    <glyph glyph-name="M" unicode="M" horiz-adv-x="332" 
d="M323 586l-9 -199v-80c0 -4 -8 -113 -8 -118v-58c0 -4 -1 -100 -4 -127c-1 -6 -21 -12 -24 -12c-4 0 -12 2 -17 2c-4 0 -13 9 -14 15c-4 19 -4 55 -4 59c0 11 11 57 11 103v53l7 133c0 4 4 39 7 101l-1 27c-38 -102 -42 -88 -55 -156c-6 -7 -11 -33 -34 -34
c-9 4 -17 4 -20 14c-19 53 -43 111 -67 167c-2 -4 -5 -108 -5 -128v-355c0 -8 -18 -13 -22 -13c-5 0 -6 2 -9 2c-8 0 -20 -4 -25 -4c-8 0 -13 14 -13 15c0 13 6 -10 6 55v176l5 143v89c0 5 2 6 2 73c-2 16 -5 58 -5 69c0 13 20 19 30 19c4 0 2 -1 8 -1c4 0 16 7 21 7
c8 0 73 -164 100 -208c22 59 73 181 74 211c3 0 7 0 13 2c2 -3 5 -9 9 -9c35 0 43 1 43 -33z" />
    <glyph glyph-name="N" unicode="N" horiz-adv-x="300" 
d="M283 544c0 -17 -6 -32 -6 -173v-371c-4 -10 -11 -10 -22 -13l-6 -2h-17c-18 0 -12 21 -21 44c-59 161 -85 243 -132 407c-3 -35 -5 -100 -5 -105v-191l11 -119c0 -9 -14 -24 -27 -24c-4 0 -8 -2 -13 -2c-4 0 -2 4 -7 5c-4 2 -13 9 -12 15c6 130 5 133 2 210l-2 161
c2 13 2 41 2 63c0 15 -1 35 -1 51c0 92 -8 95 -8 112c0 6 8 16 14 16c4 0 0 -2 4 -2c5 0 10 4 18 6c8 -1 21 -7 25 -19c17 -49 94 -300 138 -428c7 24 5 79 5 113v229c0 29 -8 91 7 96l5 3c2 -1 12 -1 16 -1s0 1 4 1c28 0 28 -69 28 -82z" />
    <glyph glyph-name="O" unicode="O" horiz-adv-x="258" 
d="M206 415c0 13 -2 191 -66 191c-62 0 -68 -188 -68 -216l-11 -179c0 -21 0 -186 56 -186c5 0 1 -4 6 -4c4 0 14 2 23 2c1 0 0 3 4 3h5c46 0 42 191 42 203v46c0 4 6 41 6 45v53c0 5 3 38 3 42zM241 520l2 -116l-6 -224c-3 -15 2 -43 2 -53c0 -42 -19 -123 -40 -122
c-9 -2 -65 -22 -67 -22c-4 0 -26 3 -30 3c-75 0 -83 131 -83 165c0 81 15 222 11 333c-1 33 19 161 102 161c4 0 -2 -4 3 -4c4 0 19 4 24 4c64 0 80 -101 82 -125z" />
    <glyph glyph-name="P" unicode="P" horiz-adv-x="219" 
d="M164 461c0 44 -29 136 -89 136c-4 0 -8 -6 -10 -9c-3 -265 -8 -172 -3 -281l4 -2c15 3 40 23 46 23c3 0 17 17 23 25c19 32 29 71 29 108zM207 473c0 -45 -9 -125 -64 -168c-5 -3 -69 -37 -73 -37c-5 0 -2 2 -3 4c-3 -4 -5 -9 -7 -14l5 -213c0 -5 8 -32 8 -37
c0 -4 -6 -11 -10 -11c-44 0 -24 8 -44 1l3 284c3 18 5 59 5 64v177c0 46 -11 94 -11 95c0 16 13 10 23 19c0 -2 -1 -3 4 -3c4 0 5 3 11 2c1 1 1 -2 5 -2c5 0 2 3 7 3c87 -2 141 -83 141 -164z" />
    <glyph glyph-name="Q" unicode="Q" horiz-adv-x="243" 
d="M190 207c0 5 -2 24 -4 35l-5 227c-1 5 -10 148 -59 148c-41 0 -57 -68 -57 -92c0 -51 -4 -62 -4 -172c0 -89 0 -180 25 -266c1 -6 10 -46 25 -46c5 0 1 4 5 4c5 0 8 -2 12 -2c55 0 62 142 62 164zM243 -36c0 -11 -18 -18 -24 -18c-17 0 -45 0 -62 4l-4 -4
c-24 12 -26 16 -44 32c0 7 -1 16 -1 25c-3 2 -8 3 -13 6c-2 -1 -3 1 -8 1c-4 0 -3 -2 -3 -3c-50 20 -63 122 -63 174c0 38 2 42 2 194v58c0 64 -17 226 100 226c4 0 14 -6 19 -7c65 -3 84 -120 84 -170v-269c0 -28 -8 -134 -13 -147c-12 -35 -42 -45 -54 -53
c-4 -2 -7 -7 -7 -12c0 -6 4 -26 12 -26c4 0 17 -1 22 -1c4 0 4 1 9 1h8l8 7c3 -1 8 0 12 -1c9 -2 20 -14 20 -17z" />
    <glyph glyph-name="R" unicode="R" horiz-adv-x="259" 
d="M204 476c0 32 -14 85 -47 99c-5 0 -2 -4 -7 -4c-7 0 0 5 -47 5c-5 0 -1 4 -6 4c-4 0 -16 -2 -20 -2l-2 -172c3 -27 4 -51 7 -84c11 3 24 8 32 13c9 3 21 9 25 9c10 0 21 15 22 16c30 20 43 83 43 116zM245 456c0 -50 -59 -162 -121 -164c25 -18 44 -60 52 -95
c9 -40 12 -68 31 -139c8 -33 37 -49 37 -53c0 -12 -13 -18 -23 -18c-68 0 -88 153 -89 170c-1 14 -4 35 -9 51c-7 21 -17 47 -44 61c0 0 -3 3 -3 -2v-179c0 -4 1 -47 0 -71c-1 -6 -16 -19 -21 -19c-4 0 -8 -3 -12 -3c-37 0 -27 65 -27 79v78c0 9 4 174 4 187v142
c0 94 -13 109 -13 120c0 7 9 19 21 19c5 0 36 -4 40 -4h62c9 0 45 -15 50 -17c62 -36 65 -101 65 -143z" />
    <glyph glyph-name="S" unicode="S" horiz-adv-x="225" 
d="M209 511c0 -9 -25 -18 -31 -18c-4 0 -18 11 -17 15c0 17 1 38 -2 54c-1 2 -3 6 -3 11c-4 5 -9 5 -12 11c-6 -1 -10 -9 -11 -14c-24 -23 -37 -73 -37 -105c0 -135 111 -156 111 -353c0 -24 -23 -117 -70 -117c-4 0 -21 -10 -24 -10h-26c-73 0 -76 127 -76 153
c0 9 4 11 13 14c5 3 13 6 17 6c36 0 7 -138 60 -138c5 0 0 2 5 2c36 0 48 86 49 88c-2 47 0 49 0 51c-9 131 -109 202 -109 299c0 19 21 169 85 169c56 0 72 -43 72 -99c0 -5 6 -14 6 -19z" />
    <glyph glyph-name="T" unicode="T" horiz-adv-x="291" 
d="M272 603c0 -13 -8 -25 -20 -25c-5 0 -29 4 -34 4c-1 0 -38 -3 -45 -4c-2 -18 -3 -51 -3 -55v-67l2 -182c-4 -33 -7 -97 -7 -102v-46c0 -4 -2 -52 -1 -78c0 -7 4 -22 4 -27c0 -16 -18 -23 -32 -23h-9c-11 0 -13 44 -13 47c0 4 3 95 3 100v85c0 4 4 43 4 48v293
c-5 3 -12 4 -17 4s-63 -11 -68 -11c-13 0 -19 24 -19 30c0 12 4 24 17 24c4 0 18 -3 22 -3c5 0 6 3 8 3l169 2c4 0 24 4 29 4c8 0 10 -19 10 -21z" />
    <glyph glyph-name="U" unicode="U" horiz-adv-x="246" 
d="M226 603l-4 -198c0 -10 2 -18 2 -82c0 -35 4 -79 -1 -117c-12 -87 5 -88 -17 -154c-8 -25 -49 -70 -52 -70c-13 0 -16 -4 -53 -4c-4 0 -7 4 -11 4c-13 0 -37 16 -44 24c-24 28 -24 89 -24 128v76c0 4 5 83 5 88v146c0 111 -10 131 -10 180c5 1 13 9 17 9s3 -2 6 -2
s38 -15 38 -25c0 -4 -7 -53 -7 -63c3 -317 -4 -268 -4 -363c0 -23 -8 -158 50 -158c5 0 3 3 8 3c21 0 40 84 41 92c2 13 12 41 13 62c2 35 -1 170 -1 251v185c0 7 15 14 17 14c15 0 29 -3 31 -26z" />
    <glyph glyph-name="V" unicode="V" horiz-adv-x="268" 
d="M255 595c0 -4 -23 -89 -29 -117c-30 -128 -80 -347 -77 -474c0 -4 -5 -10 -11 -14h-13c-14 39 -38 192 -57 321c-9 54 -21 143 -33 203c-4 20 -20 69 -20 73c0 10 6 19 15 19c8 0 33 -4 34 -8c15 -55 21 -131 33 -207l25 -187c2 0 1 -1 3 -3c38 146 63 265 75 397
c6 5 29 16 33 16c7 0 22 -9 22 -19z" />
    <glyph glyph-name="W" unicode="W" horiz-adv-x="482" 
d="M474 602c0 -3 -13 -51 -20 -76c-20 -75 -34 -155 -45 -232c-20 -136 -47 -250 -38 -279c-4 -5 -14 -17 -23 -20h-8c-53 150 -75 303 -111 458c-2 0 -3 2 -5 3c-50 -258 -72 -336 -84 -444c-2 -4 -9 -8 -12 -12c-6 2 -19 1 -21 10c-13 49 -15 102 -22 153
c-11 79 -28 196 -43 294c-11 74 -32 130 -32 139c0 14 46 15 54 15c13 0 40 -189 50 -273l17 -116c28 149 47 254 74 379c1 6 20 12 21 12c39 0 31 -49 37 -68c5 -17 11 -52 17 -72c3 -26 12 -54 16 -81l39 -183c5 24 11 61 16 87c21 94 86 333 96 333c15 0 27 -23 27 -27z
" />
    <glyph glyph-name="X" unicode="X" horiz-adv-x="265" 
d="M255 15c0 -14 -24 -25 -34 -25c-4 0 -15 2 -20 4c-14 21 -54 183 -76 255c-15 -39 -42 -173 -52 -253c0 -5 -7 -12 -11 -15c-3 0 -6 -2 -10 -2c-5 0 -2 2 -6 2c-5 0 -6 -1 -4 -3c-9 3 -24 7 -24 17c0 17 58 235 68 273c5 20 9 53 13 73l-76 251c17 16 13 19 28 19
c18 0 50 -137 67 -182c17 56 30 126 51 185c1 3 19 10 24 10s19 -8 19 -15c0 -4 -15 -65 -24 -96l-42 -173c23 -78 43 -158 72 -234c12 -31 37 -87 37 -91z" />
    <glyph glyph-name="Y" unicode="Y" horiz-adv-x="227" 
d="M156 433v0v0v0zM215 582c0 -11 -77 -235 -74 -271c1 -15 -2 -8 -3 -89l4 -162c0 -4 0 -39 -3 -56c-4 -4 -28 -18 -36 -18c-9 0 -17 15 -17 22v63c7 12 0 26 7 44l-2 176c-2 15 3 37 -1 52c-4 18 -29 111 -51 186c-4 16 -21 52 -21 57c0 6 9 9 16 8l5 2c2 0 8 0 3 5
c15 -4 18 -4 32 -9l47 -167l39 176c4 0 9 4 13 4c14 0 42 -5 42 -23z" />
    <glyph glyph-name="Z" unicode="Z" horiz-adv-x="210" 
d="M199 602l-34 -210c-11 -51 -19 -103 -30 -153c-7 -31 -41 -181 -41 -186c0 -6 2 -13 8 -13c4 0 52 2 56 2s14 3 18 3c9 0 16 -9 16 -17c0 -7 -11 -23 -21 -23l-99 -3c-17 0 -31 16 -31 28c0 16 57 273 76 360c10 50 33 183 33 187c0 5 1 3 -1 5c-23 2 -80 2 -85 2
c-32 0 -52 -3 -52 28c0 1 3 19 12 19h114c9 0 26 -1 46 7c10 -6 12 -22 15 -36z" />
    <glyph glyph-name="bracketleft" unicode="[" 
 />
    <glyph glyph-name="backslash" unicode="\" 
 />
    <glyph glyph-name="bracketright" unicode="]" 
 />
    <glyph glyph-name="asciicircum" unicode="^" 
 />
    <glyph glyph-name="underscore" unicode="_" 
 />
    <glyph glyph-name="a" unicode="a" horiz-adv-x="346" 
d="M215 261l-55 195l-33 -202c67 8 62 8 88 7zM337 16c0 -15 -21 -21 -30 -21c-3 0 -1 4 -12 -1c-14 -1 -16 20 -16 26l-49 179c-3 0 -3 2 -5 4c-37 0 -50 -1 -54 -2c-18 -1 -36 -3 -54 -4c-19 -75 -22 -194 -42 -194c-5 0 -11 3 -17 3c-4 0 -23 -7 -27 -7
c-2 0 -19 14 -19 15c0 6 66 354 72 403c6 51 15 122 32 198c15 0 47 6 50 6c4 0 15 0 16 -6c32 -125 63 -259 96 -386c14 -50 59 -206 59 -213z" />
    <glyph glyph-name="b" unicode="b" horiz-adv-x="219" 
d="M146 155c0 16 -20 110 -58 110c-4 0 -4 5 -5 3c-3 0 -3 4 -5 4c1 -13 0 -26 -2 -34l-3 -191c2 0 3 -2 8 -2c40 0 65 97 65 110zM151 509c0 43 -8 71 -57 79l-5 -2c-7 -3 -6 -28 -5 -42c2 -33 2 -78 2 -82v-92c39 38 65 95 65 139zM204 503c0 -71 -38 -139 -100 -182
c63 -12 89 -102 89 -155c0 -7 -7 -72 -10 -84c-8 -31 -65 -85 -89 -85c-4 0 -38 -11 -44 -11c-5 0 -5 10 -16 2c-15 5 -18 13 -18 27c0 4 6 34 6 50c5 318 6 404 5 535c-2 1 -3 5 -3 9c0 14 50 21 61 21c83 0 119 -45 119 -127z" />
    <glyph glyph-name="c" unicode="c" horiz-adv-x="186" 
d="M186 119c0 -40 -11 -124 -86 -124c-4 0 -18 6 -29 9c-52 25 -38 79 -48 118l2 373c2 23 26 144 90 144s66 -78 66 -124c0 -6 1 -13 -12 -17c-2 1 -5 -1 -5 -2l-4 3c-36 -14 0 97 -35 97c-5 0 0 -4 -5 -4s-1 4 -3 4c-48 -48 -40 -133 -42 -194c-11 -51 -9 -111 -9 -132
c0 -6 0 -229 21 -229c4 0 8 -4 13 -4c72 0 9 133 67 133c20 0 19 -47 19 -51z" />
    <glyph glyph-name="d" unicode="d" horiz-adv-x="236" 
d="M170 312v71c0 15 -38 163 -77 163c-4 0 -9 7 -10 7v-232c0 -4 -2 -162 -5 -217c1 -1 5 -4 5 -4c4 2 8 2 10 0c37 32 77 155 77 212zM219 388l-2 -89c-9 -64 -17 -127 -55 -200c-2 -4 -39 -52 -48 -52c-5 0 -44 -36 -48 -36c-5 0 -9 -4 -13 -4s-19 -3 -24 -3
c-6 0 -10 48 -10 49l4 166c2 79 7 119 7 137v219c0 4 -7 29 -7 33c0 12 19 12 27 12c140 0 169 -147 169 -232z" />
    <glyph glyph-name="e" unicode="e" horiz-adv-x="172" 
d="M166 583c0 -3 -9 -16 -13 -16c-15 0 -14 4 -51 4c-8 0 -26 2 -26 -3c-2 -135 -1 -79 -2 -181c1 -2 1 -3 6 -3s1 1 5 1c21 0 17 -46 20 -61c-4 -4 -12 -9 -16 -9s-8 2 -14 2c-3 -46 -9 -75 -9 -134v-111c2 -2 3 -5 8 -5c4 0 21 4 25 4c17 0 22 -19 22 -25
c0 -4 -4 -24 -4 -36c-6 -5 -22 -3 -26 -10c-2 2 -4 5 -8 5c-5 0 -13 -1 -18 -5c0 4 2 4 1 5c-3 -2 -13 -7 -17 -7h-10c-24 0 -22 16 -25 35l11 452v101c0 37 10 18 54 29l7 -2c13 3 34 5 56 11c3 -4 15 -5 18 -10c5 -8 6 -27 6 -31z" />
    <glyph glyph-name="f" unicode="f" horiz-adv-x="166" 
d="M155 587c0 -7 -9 -9 -12 -11l-5 -5c-23 -2 -49 -9 -53 -9c-5 0 -3 2 -4 4c-2 0 -3 -3 -7 -5l2 -164c3 -10 -4 -35 8 -35c4 0 9 3 13 3c5 0 2 4 7 4c4 0 3 -4 6 -3c14 -7 21 -61 21 -67c0 -4 -8 -13 -10 -19c-9 4 -23 9 -28 9h-11c-4 -27 -7 -80 -7 -84v-50
c0 -10 -7 -125 -10 -143c-8 -7 -26 -14 -34 -14c-18 0 -17 29 -18 36l7 323c4 42 5 123 5 128v70c0 4 1 43 -1 63c4 5 10 9 18 7l5 4c1 -2 4 -2 9 -2c3 0 5 2 9 2c5 0 65 6 70 6c16 0 20 -44 20 -48z" />
    <glyph glyph-name="g" unicode="g" horiz-adv-x="268" 
d="M250 11c0 -9 -5 -26 -18 -27c-4 -2 -11 -2 -15 -2c-6 0 -7 48 -11 64c-4 -7 -39 -64 -62 -64h-21c-5 0 -1 -3 -6 -3c-100 0 -90 171 -90 233v91l3 117c0 45 27 204 102 204c68 0 114 -26 114 -102c0 -7 1 -10 -8 -10c-4 0 -14 -16 -30 -16c-10 0 -16 68 -38 90
c-2 0 -4 -2 -5 -3c-47 7 -76 -127 -76 -186v-43l-9 -142c0 -14 2 -199 47 -199c5 0 4 -3 8 -3c38 0 43 90 43 96l-3 175l-3 3c-12 -7 -26 -14 -40 -22c-4 0 -2 -2 -7 -2c-7 0 -13 18 -13 18c0 10 5 57 14 57c5 0 1 -4 6 -4s56 15 66 22l3 -3c1 3 6 7 10 7
c24 0 20 -47 20 -54l11 -228c0 -4 8 -60 8 -64z" />
    <glyph glyph-name="h" unicode="h" horiz-adv-x="268" 
d="M239 611c0 -12 -6 -61 -8 -89c-2 -38 -8 -121 -8 -125v-43l-10 -204c0 -87 10 -120 10 -133c0 -8 -11 -15 -15 -15h-18c-11 0 -20 1 -20 15c0 6 4 24 4 30c0 13 3 38 3 42v71c0 4 4 29 5 44c-1 2 1 67 -1 69c-13 -2 -25 -2 -38 -2l-4 4c-88 -11 -81 8 -81 -58v-88
c0 -4 -2 -72 -1 -104c0 -14 -10 -23 -21 -23c-25 0 -22 64 -22 67l4 119c1 97 10 44 0 292c-5 138 -7 114 -7 127c0 4 4 11 5 15c10 0 26 2 30 2c27 0 16 -207 18 -313c2 -3 5 -3 10 -3c4 0 21 3 25 3s19 2 24 2s36 -4 40 -4c0 0 15 0 21 5l4 139l-2 155c0 12 26 21 39 21
c6 0 14 -14 14 -18z" />
    <glyph glyph-name="i" unicode="i" horiz-adv-x="103" 
d="M79 594c0 -5 -3 -52 -3 -57v-64l-6 -207l-9 -131l2 -91c0 -10 1 -33 -10 -38l-4 2c-1 -2 -3 -2 -8 -2c-26 0 -24 56 -24 63l11 230v196c0 49 8 98 -2 121c5 4 23 10 31 10c17 0 22 -20 22 -32z" />
    <glyph glyph-name="j" unicode="j" horiz-adv-x="236" 
d="M217 242l4 -142c-1 -36 -40 -99 -85 -99c-4 0 -25 4 -29 4s-16 3 -25 6c-45 15 -55 74 -59 116c-4 33 -2 65 -2 77c4 3 15 6 21 10c8 -7 27 -2 33 -14c6 -39 16 -136 39 -155c3 -2 4 -10 8 -10h5c25 0 39 85 39 94v165c0 1 -9 202 -9 309c0 11 1 25 20 25
c3 0 16 -6 23 -10c8 -21 14 -104 14 -118v-55s3 -87 3 -101v-102z" />
    <glyph glyph-name="k" unicode="k" horiz-adv-x="254" 
d="M246 605l-130 -240c-3 -5 -20 -28 -20 -43c0 -16 50 -128 52 -133c19 -54 78 -168 78 -173c0 -13 -32 -26 -40 -26c-11 0 -20 14 -19 21l-86 228c1 -24 -10 -80 1 -95v-121c-5 -4 -7 -14 -13 -18c-6 -3 -19 -1 -24 -9c-6 1 -18 5 -19 10c-6 19 -8 69 -8 93
c0 28 6 94 6 149v67l3 127c-10 121 5 92 -14 169c14 2 20 5 35 8l4 4l5 -3l8 1c20 -9 14 -102 17 -155c1 -17 -1 -43 1 -63l110 223c25 -2 39 -8 50 -9c0 -4 1 -8 3 -12z" />
    <glyph glyph-name="l" unicode="l" horiz-adv-x="198" 
d="M186 27c0 -22 -17 -28 -37 -28c-4 0 -52 -2 -56 -2s-26 -3 -30 -3s-28 -2 -31 -2c-12 0 -17 31 -17 32c0 4 6 22 6 113v54c0 170 18 271 7 413c-1 10 16 13 23 13c27 0 34 -26 34 -49c0 -4 -2 -36 -2 -40v-61l-13 -415c0 -6 0 -12 6 -17c2 2 0 4 5 4h13h15c5 0 -1 4 4 4
c4 0 45 2 50 2c4 0 3 1 8 1c4 0 0 2 4 2c10 0 11 -18 11 -21z" />
    <glyph glyph-name="m" unicode="m" horiz-adv-x="332" 
d="M323 586l-9 -199v-80c0 -4 -8 -113 -8 -118v-58c0 -4 -1 -100 -4 -127c-1 -6 -21 -12 -24 -12c-4 0 -12 2 -17 2c-4 0 -13 9 -14 15c-4 19 -4 55 -4 59c0 11 11 57 11 103v53l7 133c0 4 4 39 7 101l-1 27c-38 -102 -42 -88 -55 -156c-6 -7 -11 -33 -34 -34
c-9 4 -17 4 -20 14c-19 53 -43 111 -67 167c-2 -4 -5 -108 -5 -128v-355c0 -8 -18 -13 -22 -13c-5 0 -6 2 -9 2c-8 0 -20 -4 -25 -4c-8 0 -13 14 -13 15c0 13 6 -10 6 55v176l5 143v89c0 5 2 6 2 73c-2 16 -5 58 -5 69c0 13 20 19 30 19c4 0 2 -1 8 -1c4 0 16 7 21 7
c8 0 73 -164 100 -208c22 59 73 181 74 211c3 0 7 0 13 2c2 -3 5 -9 9 -9c35 0 43 1 43 -33z" />
    <glyph glyph-name="n" unicode="n" horiz-adv-x="300" 
d="M283 544c0 -17 -6 -32 -6 -173v-371c-4 -10 -11 -10 -22 -13l-6 -2h-17c-18 0 -12 21 -21 44c-59 161 -85 243 -132 407c-3 -35 -5 -100 -5 -105v-191l11 -119c0 -9 -14 -24 -27 -24c-4 0 -8 -2 -13 -2c-4 0 -2 4 -7 5c-4 2 -13 9 -12 15c6 130 5 133 2 210l-2 161
c2 13 2 41 2 63c0 15 -1 35 -1 51c0 92 -8 95 -8 112c0 6 8 16 14 16c4 0 0 -2 4 -2c5 0 10 4 18 6c8 -1 21 -7 25 -19c17 -49 94 -300 138 -428c7 24 5 79 5 113v229c0 29 -8 91 7 96l5 3c2 -1 12 -1 16 -1s0 1 4 1c28 0 28 -69 28 -82z" />
    <glyph glyph-name="o" unicode="o" horiz-adv-x="258" 
d="M206 415c0 13 -2 191 -66 191c-62 0 -68 -188 -68 -216l-11 -179c0 -21 0 -186 56 -186c5 0 1 -4 6 -4c4 0 14 2 23 2c1 0 0 3 4 3h5c46 0 42 191 42 203v46c0 4 6 41 6 45v53c0 5 3 38 3 42zM241 520l2 -116l-6 -224c-3 -15 2 -43 2 -53c0 -42 -19 -123 -40 -122
c-9 -2 -65 -22 -67 -22c-4 0 -26 3 -30 3c-75 0 -83 131 -83 165c0 81 15 222 11 333c-1 33 19 161 102 161c4 0 -2 -4 3 -4c4 0 19 4 24 4c64 0 80 -101 82 -125z" />
    <glyph glyph-name="p" unicode="p" horiz-adv-x="219" 
d="M164 461c0 44 -29 136 -89 136c-4 0 -8 -6 -10 -9c-3 -265 -8 -172 -3 -281l4 -2c15 3 40 23 46 23c3 0 17 17 23 25c19 32 29 71 29 108zM207 473c0 -45 -9 -125 -64 -168c-5 -3 -69 -37 -73 -37c-5 0 -2 2 -3 4c-3 -4 -5 -9 -7 -14l5 -213c0 -5 8 -32 8 -37
c0 -4 -6 -11 -10 -11c-44 0 -24 8 -44 1l3 284c3 18 5 59 5 64v177c0 46 -11 94 -11 95c0 16 13 10 23 19c0 -2 -1 -3 4 -3c4 0 5 3 11 2c1 1 1 -2 5 -2c5 0 2 3 7 3c87 -2 141 -83 141 -164z" />
    <glyph glyph-name="q" unicode="q" horiz-adv-x="243" 
d="M190 207c0 5 -2 24 -4 35l-5 227c-1 5 -10 148 -59 148c-41 0 -57 -68 -57 -92c0 -51 -4 -62 -4 -172c0 -89 0 -180 25 -266c1 -6 10 -46 25 -46c5 0 1 4 5 4c5 0 8 -2 12 -2c55 0 62 142 62 164zM243 -36c0 -11 -18 -18 -24 -18c-17 0 -45 0 -62 4l-4 -4
c-24 12 -26 16 -44 32c0 7 -1 16 -1 25c-3 2 -8 3 -13 6c-2 -1 -3 1 -8 1c-4 0 -3 -2 -3 -3c-50 20 -63 122 -63 174c0 38 2 42 2 194v58c0 64 -17 226 100 226c4 0 14 -6 19 -7c65 -3 84 -120 84 -170v-269c0 -28 -8 -134 -13 -147c-12 -35 -42 -45 -54 -53
c-4 -2 -7 -7 -7 -12c0 -6 4 -26 12 -26c4 0 17 -1 22 -1c4 0 4 1 9 1h8l8 7c3 -1 8 0 12 -1c9 -2 20 -14 20 -17z" />
    <glyph glyph-name="r" unicode="r" horiz-adv-x="259" 
d="M204 476c0 32 -14 85 -47 99c-5 0 -2 -4 -7 -4c-7 0 0 5 -47 5c-5 0 -1 4 -6 4c-4 0 -16 -2 -20 -2l-2 -172c3 -27 4 -51 7 -84c11 3 24 8 32 13c9 3 21 9 25 9c10 0 21 15 22 16c30 20 43 83 43 116zM245 456c0 -50 -59 -162 -121 -164c25 -18 44 -60 52 -95
c9 -40 12 -68 31 -139c8 -33 37 -49 37 -53c0 -12 -13 -18 -23 -18c-68 0 -88 153 -89 170c-1 14 -4 35 -9 51c-7 21 -17 47 -44 61c0 0 -3 3 -3 -2v-179c0 -4 1 -47 0 -71c-1 -6 -16 -19 -21 -19c-4 0 -8 -3 -12 -3c-37 0 -27 65 -27 79v78c0 9 4 174 4 187v142
c0 94 -13 109 -13 120c0 7 9 19 21 19c5 0 36 -4 40 -4h62c9 0 45 -15 50 -17c62 -36 65 -101 65 -143z" />
    <glyph glyph-name="s" unicode="s" horiz-adv-x="225" 
d="M209 511c0 -9 -25 -18 -31 -18c-4 0 -18 11 -17 15c0 17 1 38 -2 54c-1 2 -3 6 -3 11c-4 5 -9 5 -12 11c-6 -1 -10 -9 -11 -14c-24 -23 -37 -73 -37 -105c0 -135 111 -156 111 -353c0 -24 -23 -117 -70 -117c-4 0 -21 -10 -24 -10h-26c-73 0 -76 127 -76 153
c0 9 4 11 13 14c5 3 13 6 17 6c36 0 7 -138 60 -138c5 0 0 2 5 2c36 0 48 86 49 88c-2 47 0 49 0 51c-9 131 -109 202 -109 299c0 19 21 169 85 169c56 0 72 -43 72 -99c0 -5 6 -14 6 -19z" />
    <glyph glyph-name="t" unicode="t" horiz-adv-x="291" 
d="M272 603c0 -13 -8 -25 -20 -25c-5 0 -29 4 -34 4c-1 0 -38 -3 -45 -4c-2 -18 -3 -51 -3 -55v-67l2 -182c-4 -33 -7 -97 -7 -102v-46c0 -4 -2 -52 -1 -78c0 -7 4 -22 4 -27c0 -16 -18 -23 -32 -23h-9c-11 0 -13 44 -13 47c0 4 3 95 3 100v85c0 4 4 43 4 48v293
c-5 3 -12 4 -17 4s-63 -11 -68 -11c-13 0 -19 24 -19 30c0 12 4 24 17 24c4 0 18 -3 22 -3c5 0 6 3 8 3l169 2c4 0 24 4 29 4c8 0 10 -19 10 -21z" />
    <glyph glyph-name="u" unicode="u" horiz-adv-x="246" 
d="M226 603l-4 -198c0 -10 2 -18 2 -82c0 -35 4 -79 -1 -117c-12 -87 5 -88 -17 -154c-8 -25 -49 -70 -52 -70c-13 0 -16 -4 -53 -4c-4 0 -7 4 -11 4c-13 0 -37 16 -44 24c-24 28 -24 89 -24 128v76c0 4 5 83 5 88v146c0 111 -10 131 -10 180c5 1 13 9 17 9s3 -2 6 -2
s38 -15 38 -25c0 -4 -7 -53 -7 -63c3 -317 -4 -268 -4 -363c0 -23 -8 -158 50 -158c5 0 3 3 8 3c21 0 40 84 41 92c2 13 12 41 13 62c2 35 -1 170 -1 251v185c0 7 15 14 17 14c15 0 29 -3 31 -26z" />
    <glyph glyph-name="v" unicode="v" horiz-adv-x="268" 
d="M255 595c0 -4 -23 -89 -29 -117c-30 -128 -80 -347 -77 -474c0 -4 -5 -10 -11 -14h-13c-14 39 -38 192 -57 321c-9 54 -21 143 -33 203c-4 20 -20 69 -20 73c0 10 6 19 15 19c8 0 33 -4 34 -8c15 -55 21 -131 33 -207l25 -187c2 0 1 -1 3 -3c38 146 63 265 75 397
c6 5 29 16 33 16c7 0 22 -9 22 -19z" />
    <glyph glyph-name="w" unicode="w" horiz-adv-x="482" 
d="M474 602c0 -3 -13 -51 -20 -76c-20 -75 -34 -155 -45 -232c-20 -136 -47 -250 -38 -279c-4 -5 -14 -17 -23 -20h-8c-53 150 -75 303 -111 458c-2 0 -3 2 -5 3c-50 -258 -72 -336 -84 -444c-2 -4 -9 -8 -12 -12c-6 2 -19 1 -21 10c-13 49 -15 102 -22 153
c-11 79 -28 196 -43 294c-11 74 -32 130 -32 139c0 14 46 15 54 15c13 0 40 -189 50 -273l17 -116c28 149 47 254 74 379c1 6 20 12 21 12c39 0 31 -49 37 -68c5 -17 11 -52 17 -72c3 -26 12 -54 16 -81l39 -183c5 24 11 61 16 87c21 94 86 333 96 333c15 0 27 -23 27 -27z
" />
    <glyph glyph-name="x" unicode="x" horiz-adv-x="265" 
d="M255 15c0 -14 -24 -25 -34 -25c-4 0 -15 2 -20 4c-14 21 -54 183 -76 255c-15 -39 -42 -173 -52 -253c0 -5 -7 -12 -11 -15c-3 0 -6 -2 -10 -2c-5 0 -2 2 -6 2c-5 0 -6 -1 -4 -3c-9 3 -24 7 -24 17c0 17 58 235 68 273c5 20 9 53 13 73l-76 251c17 16 13 19 28 19
c18 0 50 -137 67 -182c17 56 30 126 51 185c1 3 19 10 24 10s19 -8 19 -15c0 -4 -15 -65 -24 -96l-42 -173c23 -78 43 -158 72 -234c12 -31 37 -87 37 -91z" />
    <glyph glyph-name="y" unicode="y" horiz-adv-x="227" 
d="M156 433v0v0v0zM215 582c0 -11 -77 -235 -74 -271c1 -15 -2 -8 -3 -89l4 -162c0 -4 0 -39 -3 -56c-4 -4 -28 -18 -36 -18c-9 0 -17 15 -17 22v63c7 12 0 26 7 44l-2 176c-2 15 3 37 -1 52c-4 18 -29 111 -51 186c-4 16 -21 52 -21 57c0 6 9 9 16 8l5 2c2 0 8 0 3 5
c15 -4 18 -4 32 -9l47 -167l39 176c4 0 9 4 13 4c14 0 42 -5 42 -23z" />
    <glyph glyph-name="z" unicode="z" horiz-adv-x="210" 
d="M199 602l-34 -210c-11 -51 -19 -103 -30 -153c-7 -31 -41 -181 -41 -186c0 -6 2 -13 8 -13c4 0 52 2 56 2s14 3 18 3c9 0 16 -9 16 -17c0 -7 -11 -23 -21 -23l-99 -3c-17 0 -31 16 -31 28c0 16 57 273 76 360c10 50 33 183 33 187c0 5 1 3 -1 5c-23 2 -80 2 -85 2
c-32 0 -52 -3 -52 28c0 1 3 19 12 19h114c9 0 26 -1 46 7c10 -6 12 -22 15 -36z" />
    <glyph glyph-name="quotesingle" unicode="'" horiz-adv-x="89" 
d="M63 710v-96s-6 -25 -10 -25c-28 0 -19 16 -29 29c15 92 1 49 1 100c0 6 3 20 10 20c18 0 28 -18 28 -28z" />
    <glyph glyph-name="grave" unicode="`" 
 />
    <glyph glyph-name="Euro" unicode="&#x20ac;" horiz-adv-x="239" 
d="M230 130c0 -4 0 -42 -4 -58c-5 -16 -43 -71 -70 -71c-4 0 -27 -1 -31 -1c-67 0 -73 48 -71 115c2 38 4 90 3 124c-8 0 -23 -2 -27 -2c-12 0 -17 35 -17 40s13 18 15 21l5 -2c4 0 12 -2 18 -6c4 5 10 17 10 23v19c-10 9 -25 0 -29 0c-8 0 -19 20 -19 27c0 8 6 27 16 27
c4 0 20 -2 24 -2c27 0 -21 212 97 212c61 0 64 -95 64 -128c0 -15 0 -30 -18 -30c-4 0 -10 1 -15 1c-7 0 -17 26 -16 30c1 18 2 66 -20 75c-13 -14 -13 -23 -15 -36c-8 -35 -11 -102 -11 -107v-13c4 -14 69 1 81 1c9 0 10 -18 10 -21c0 -19 -8 -17 -17 -31c-3 3 -8 5 -12 5
c-5 0 -7 -3 -11 -3s-36 0 -54 -1c-4 -4 -5 -26 -5 -26c0 -8 -3 -23 7 -23c4 0 81 7 86 7c7 0 13 -22 13 -25c0 -6 -7 -31 -17 -31c-4 0 -23 6 -28 6c-4 0 -17 -6 -22 -6c-4 0 -9 4 -13 4c-8 0 -26 3 -26 -17c1 -47 2 -56 2 -60s-3 -17 -3 -26c1 -70 -8 -74 -8 -82
c0 -4 5 -27 14 -27c4 0 6 2 11 2c4 0 1 -4 5 -4c61 0 41 168 43 174s11 10 14 15c2 0 1 -2 6 -2c4 0 12 -4 16 -4l6 2c6 -4 13 -72 13 -85z" />
  </font>
</defs>
</svg>
