<?xml version="1.0" encoding="UTF-8" ?>
<!DOCTYPE svg PUBLIC "-//W3C//DTD SVG 1.1//EN" "http://www.w3.org/Graphics/SVG/1.1/DTD/svg11.dtd">
<svg width="35pt" height="35pt" viewBox="0 0 35 35" version="1.1" xmlns="http://www.w3.org/2000/svg">
<g id="#ffffffff">
<path fill="#ffffff" opacity="1.00" d=" M 12.53 0.00 L 19.60 0.00 C 27.39 0.98 33.89 7.41 34.99 15.19 L 35.00 12.51 L 35.00 22.56 L 34.99 19.81 C 33.90 27.52 27.52 33.89 19.82 34.99 L 22.46 35.00 L 15.39 35.00 C 7.60 34.02 1.10 27.58 0.01 19.81 L 0.00 22.48 L 0.00 12.52 L 0.01 15.18 C 1.11 7.48 7.48 1.11 15.18 0.01 L 12.53 0.00 M 1.07 14.95 C 0.23 19.03 1.78 23.00 3.19 26.75 C 5.08 24.89 6.55 22.33 9.02 21.19 C 12.35 20.73 15.76 20.90 19.00 19.89 L 19.06 20.97 C 19.22 19.72 19.38 18.48 19.54 17.24 C 14.98 16.43 11.35 12.44 11.29 7.74 C 14.82 8.25 17.75 10.30 19.89 13.07 L 19.44 10.95 C 21.43 10.23 22.24 8.04 24.01 7.00 C 25.55 5.89 27.52 5.84 29.27 5.35 C 25.92 3.04 22.22 0.86 18.01 0.88 C 9.88 0.48 2.19 6.89 1.07 14.95 M 29.10 5.49 C 28.43 10.03 25.20 13.88 20.64 14.86 C 20.44 16.58 20.99 18.58 19.67 19.97 L 21.09 20.27 C 23.00 22.91 19.06 23.68 17.51 24.67 C 21.25 25.09 24.01 22.50 27.14 21.04 C 28.86 20.90 29.39 22.60 29.06 24.00 C 26.76 25.86 24.13 27.30 21.44 28.52 C 17.22 30.61 11.58 27.44 8.23 31.63 C 11.32 32.98 14.57 34.33 18.02 34.13 C 25.26 33.98 31.96 28.57 33.63 21.52 C 35.20 15.82 33.12 9.67 29.10 5.49 Z" />
<path fill="#ffffff" opacity="1.00" d=" M 19.69 5.76 C 18.84 4.71 20.55 3.07 21.65 3.61 C 22.44 4.67 20.82 6.27 19.69 5.76 Z" />
<path fill="#ffffff" opacity="1.00" d=" M 14.59 4.37 C 16.71 5.00 18.63 6.26 20.86 6.50 C 21.13 8.23 20.00 9.46 19.16 10.76 C 16.73 9.39 14.71 7.31 14.59 4.37 Z" />
</g>
</svg>
