<?xml version="1.0" encoding="UTF-8" ?>
<!DOCTYPE svg PUBLIC "-//W3C//DTD SVG 1.1//EN" "http://www.w3.org/Graphics/SVG/1.1/DTD/svg11.dtd">
<svg width="45pt" height="40pt" viewBox="0 0 45 40" version="1.1" xmlns="http://www.w3.org/2000/svg">
<g id="#ffdb8cff">
<path fill="#ffdb8c" opacity="1.00" d=" M 22.07 0.00 L 23.04 0.00 C 23.64 2.14 24.12 4.31 24.58 6.49 C 25.03 6.38 25.93 6.17 26.38 6.06 C 26.48 8.13 26.59 10.20 26.71 12.26 C 27.98 11.61 29.24 10.95 30.50 10.29 C 29.57 14.92 29.58 19.65 27.44 23.98 C 29.60 22.21 31.56 20.22 33.41 18.14 C 34.23 18.36 35.05 18.58 35.87 18.80 C 36.24 18.54 36.96 18.03 37.32 17.77 C 39.97 17.78 42.51 16.98 45.00 16.18 L 45.00 16.50 C 43.22 18.29 41.00 20.35 41.24 23.12 C 40.33 24.03 39.42 24.93 38.50 25.82 C 39.59 26.50 40.68 27.18 41.77 27.87 C 38.57 29.22 35.47 30.79 32.26 32.11 C 35.86 33.60 38.86 36.09 41.91 38.47 C 37.70 37.69 33.23 39.66 29.27 37.69 C 29.28 38.24 29.30 39.36 29.31 39.91 C 27.20 38.32 25.25 36.45 22.89 35.23 C 20.30 36.40 18.05 38.18 15.67 39.70 L 16.89 40.00 L 15.59 40.00 C 15.49 39.37 15.28 38.12 15.18 37.50 C 13.34 38.05 11.49 38.56 9.63 39.05 C 9.60 38.65 9.55 37.86 9.52 37.46 C 7.18 37.21 4.86 36.79 2.56 36.29 C 5.13 34.84 7.70 33.38 10.24 31.88 C 7.54 30.08 4.75 28.43 1.93 26.86 C 2.69 26.44 4.21 25.60 4.97 25.18 C 4.04 24.44 3.11 23.69 2.19 22.94 C 3.51 20.24 1.42 17.93 0.00 15.83 L 0.00 15.34 C 3.33 16.44 6.49 17.98 9.73 19.32 L 9.53 16.96 C 12.41 18.47 14.21 21.29 16.52 23.50 C 16.77 23.49 17.28 23.48 17.54 23.48 C 15.45 19.20 14.51 14.54 14.50 9.80 C 15.37 10.56 17.13 12.10 18.01 12.87 C 17.93 10.66 17.86 8.45 17.74 6.24 C 18.34 6.68 19.53 7.56 20.13 8.00 C 21.20 5.39 22.15 2.72 22.95 0.01 L 22.07 0.00 Z" />
</g>
</svg>
