<svg version="1.1" xmlns="http://www.w3.org/2000/svg" xmlns:xlink="http://www.w3.org/1999/xlink" width="46" height="32" viewBox="0 0 46 32">
<path fill="#ffffff" opacity="0.81" d="M14.502 0.343l2.080-0.343 1.853 0.343c3.041 0.767 5.305 2.974 7.128 5.411 3.732-1.007 7.972-1.122 11.243 1.247 4.365 2.581 6.053 7.924 5.372 12.759 1.238 1.285 2.437 2.629 3.252 4.231l0.137 1.912-0.137 1.484c-0.931 2.101-2.571 3.732-4.701 4.614h-31.36c-4.413-1.065-7.943-4.518-9.027-8.941l-0.343-2.023 0.343-2.285c0.873-3.492 3.338-6.159 6.255-8.116-0.106-4.845 3.137-9.229 7.905-10.293zM8.583 11.739c-3.29 1.727-6.562 4.681-6.437 8.73-0.528 4.998 3.991 9.795 8.97 9.747 9.353 0.048 18.716 0.086 28.070-0.010 2.485 0.125 4.806-2.283 4.432-4.787 0.23-2.331-2.063-3.521-3.665-4.643 1.381-4.115 0.249-8.95-3.223-11.665-3.377-2.907-8.346-2.724-12.222-0.959-1.372-3.195-4.154-6.293-7.934-6.053-5.104-0.384-8.941 4.806-7.991 9.641z"></path>
</svg>
