<svg version="1.1" xmlns="http://www.w3.org/2000/svg" xmlns:xlink="http://www.w3.org/1999/xlink" width="32" height="32" viewBox="0 0 32 32">
<path fill="#ffffff" opacity="0.88" d="M3.191 0.014h26.090c1.629-0.148 2.796 0.885 2.704 2.413v18.624c-1.621 4.58-7.051 2.37-10.606 3.119-4.020 2.45-7.815 5.263-11.769 7.829h-0.124c0.909-2.653 1.708-5.343 2.624-7.989-3.017-0.095-6.048 0.204-9.043-0.138-1.73-0.414-2.53-2.137-3.068-3.657v-15.92c0.276-1.905 1.338-3.606 3.191-4.282zM1.614 4.296c-0.029 5.14-0.029 10.272 0 15.411-0.073 1.199 0.734 2.624 1.977 2.806 3.518 0.247 7.044 0.022 10.563 0.116-0.785 2.217-1.687 4.384-2.566 6.564 2.45-1.73 4.885-3.482 7.299-5.256 2.784-2.53 6.855-0.778 10.228-1.41l1.396-1.396c0.116-6.085 0.109-12.169 0-18.246 0.404-0.135-0.19-1.18-1.41-1.396-8.251-0.065-16.509-0.036-24.76-0.022-1.585-0.269-2.828 1.352-2.726 2.828z"></path>
<path fill="#ffffff" opacity="0.88" d="M6.812 9.675c2.283-1.519 5.336 1.592 3.627 3.787-0.952 1.839-4.1 1.556-4.711-0.422-0.509-1.185-0.058-2.733 1.083-3.366zM7.349 11.006c-1.010 0.894 0.036 2.908 1.359 2.101 1.825-0.487 0.116-3.417-1.359-2.101z"></path>
<path fill="#ffffff" opacity="0.88" d="M14.801 9.632c2.261-1.388 5.154 1.534 3.635 3.737-0.901 1.926-4.165 1.701-4.783-0.334-0.538-1.207-0.022-2.777 1.149-3.402zM15.302 11.006c-1.207 0.851 0.16 3.024 1.403 2.094 1.788-0.611-0.015-3.373-1.403-2.094z"></path>
<path fill="#ffffff" opacity="0.88" d="M22.768 9.61c2.050-1.178 4.711 1.061 3.831 3.242-0.465 1.825-2.944 2.428-4.304 1.221-1.41-1.127-1.156-3.664 0.473-4.463zM22.979 11.362c-1.141 1.577 2.035 2.799 2.304 0.945 0.589-1.301-1.788-2.268-2.304-0.945z"></path>
</svg>
