<svg version="1.1" xmlns="http://www.w3.org/2000/svg" xmlns:xlink="http://www.w3.org/1999/xlink"  viewBox="0 0 35 32">
<path fill="#ffffff" opacity="0.98" d="M13.384 0h7.564c0.845 0.157 0.622 0.126 0.845 0.271 0.116 0.075 0.417 0.239 0.527 0.425 0.379 0.642 0.425 1.307 0.301 2.192-0.24-0.232-0.787 0.027-0.945-0.12-0.298-0.277 0.069-0.773-0.53-1.431-2.309-0.356-6.24-0.418-8.058 0.091-0.253 0.071-0.365 0.308-0.36 0.529 0.007 0.271 0.149 0.547-0.104 0.809-0.341-0.079-0.667 0.009-1-0.070 0.404-0.437 0.041-1.584 0.44-2.026 0.368-0.408 0.592-0.48 1.322-0.668z"></path>
<path fill="#ffffff" opacity="0.98" d="M0 6.882c0.444-1.451 1.53-2.735 3.195-2.474 8.975-0.095 17.958 0.016 26.942-0.048 1.578 0.048 4.138-0.492 4.629 1.522 0.111 1.395 0.001 4.583 0.12 5.978v10.458c-0.095 1.752 0.034 5.313-0.061 7.066 0.262 2.656-2.936 2.568-4.664 2.615-9.031-0.071-18.061 0.071-27.084-0.063-0.995 0.078-2.082-0.196-2.082-0.196-0.452-0.23-0.867-0.944-0.995-1.595v-23.263zM1.714 6.645c-0.349 2.204-0.239 4.193-0.263 6.421 10.561 0.079 21.3 0.065 31.869 0.088-0.074-2.534 0.207-4.958-0.33-7.289-8.677 0.014-18.56 0.198-27.472 0.071-1.277 0.119-2.35-0.079-3.521 0.368zM1.467 14.541c-0.008 2.426-0.008 4.852 0 7.278h31.691v-7.279h-31.691zM1.459 23.263c0 2.331-0.016 4.654 0.087 6.977 8.706 0.698 17.467 0.095 26.196 0.317 1.728-0.19 3.79 0.5 5.249-0.69 0.309-2.188 0.151-4.408 0.166-6.605z"></path>
</svg>
