<?xml version="1.0" encoding="UTF-8" ?>
<!DOCTYPE svg PUBLIC "-//W3C//DTD SVG 1.1//EN" "http://www.w3.org/Graphics/SVG/1.1/DTD/svg11.dtd">
<svg width="35pt" height="35pt" viewBox="0 0 35 35" version="1.1" xmlns="http://www.w3.org/2000/svg">
<g id="#fefefefe">
<path fill="#fefefe" opacity="1.00" d=" M 12.46 0.00 L 18.42 0.00 C 26.56 0.16 33.23 6.74 35.00 14.42 L 35.00 21.41 C 32.86 28.10 27.49 33.48 20.54 35.00 L 15.73 35.00 C 7.67 34.15 0.11 27.25 0.31 18.81 L 0.00 22.55 L 0.00 12.69 L 0.07 15.42 C 0.93 7.44 7.99 0.18 16.23 0.27 L 12.46 0.00 M 2.50 10.55 C -0.22 15.95 0.99 22.30 3.87 27.36 C 7.65 31.67 13.29 34.68 19.15 33.96 C 23.89 33.58 27.97 30.74 31.17 27.40 C 32.24 24.71 33.76 22.12 33.96 19.17 C 34.79 12.10 30.43 4.89 23.85 2.24 C 15.99 -1.30 5.95 2.70 2.50 10.55 Z" />
<path fill="#fefefe" opacity="1.00" d=" M 18.99 3.35 C 20.42 2.75 23.31 4.00 22.72 5.80 C 21.39 6.43 18.62 4.87 18.99 3.35 Z" />
<path fill="#fefefe" opacity="1.00" d=" M 9.71 16.44 C 11.86 12.47 14.26 8.64 16.79 4.91 C 18.67 6.05 20.55 7.22 22.25 8.62 C 19.81 12.41 17.79 16.50 15.05 20.09 C 14.59 19.95 13.67 19.69 13.21 19.56 C 12.84 19.93 12.10 20.67 11.72 21.05 C 9.68 21.78 10.17 19.21 10.94 18.30 C 10.63 17.84 10.02 16.91 9.71 16.44 Z" />
<path fill="#fefefe" opacity="1.00" d=" M 21.02 14.55 C 21.29 14.09 21.84 13.15 22.11 12.68 C 24.81 13.54 27.76 15.09 28.53 18.07 C 29.28 20.94 27.80 23.67 26.51 26.13 L 30.07 26.07 L 30.14 27.62 C 23.49 28.62 16.71 27.82 10.01 28.10 C 8.12 27.94 5.17 28.60 4.36 26.27 C 10.85 25.83 17.35 26.14 23.85 26.06 C 25.10 23.90 26.84 21.65 26.46 18.99 C 26.00 16.34 23.14 15.48 21.02 14.55 Z" />
<path fill="#fefefe" opacity="1.00" d=" M 6.91 22.91 C 9.65 22.64 12.43 22.64 15.17 22.88 L 15.70 23.93 C 13.72 26.03 9.83 24.61 7.08 24.80 C 7.04 24.33 6.96 23.39 6.91 22.91 Z" />
</g>
</svg>
